<?xml version="1.0" encoding="utf-8"?>
<!-- Generator: Adobe Illustrator 23.1.1, SVG Export Plug-In . SVG Version: 6.00 Build 0)  -->
<svg version="1.1" id="Layer_1" xmlns="http://www.w3.org/2000/svg" xmlns:xlink="http://www.w3.org/1999/xlink" x="0px" y="0px"
	 viewBox="0 0 434.72 549.44" style="enable-background:new 0 0 434.72 549.44;" xml:space="preserve">
<style type="text/css">
	.st0{fill:#3A3A3C;}
	.st1{fill:#798B57;}
	.st2{fill:none;}
	.st3{font-family:'Copperplate';}
	.st4{font-size:85px;}
</style>
<g id="Layer_3">
	<g>
		<path class="st0" d="M156.41,224.46c0,0-27.96-29.76,49.8-214.66c0,0,76.47,151.52,59.34,214.66c0,0,34.34-19.99,156.7-57.89
			c0,0-31.21,89.09-122.79,136.46c0,0,41.33,2.71,88.34,8.59c0,0-78.54,50.83-116.82,44.03l44.56,32.03
			c-0.06,3.26-58.07-7.81-97.53-42.29c0,0-1.18,71.6,8.33,91.82c9.52,20.23-21.54-39.72-25.11-83.74c0,0-40.25,32.91-92.6,46
			c0,0,23.72-18.17,47.51-43.16c0,0-68.55-5.39-133.98-43.46c0,0,57.08-9.37,94.47-9.82c0,0-53.98-25.77-101.51-141.98
			C15.14,161.06,111.48,202.36,156.41,224.46z"/>
	</g>
</g>
<g id="Layer_4">
	<g>
		<path class="st1" d="M284.9,306.16c0,0,85.27-47.86,109.47-116.67c0,0-56.48,12.82-139.4,51.36c0,0,8.8-86.77-48.69-174.48
			c0,0-64.57,107.81-36.31,177c0,0-30.92-19.61-129.45-54.4c0,0,21.68,66.62,91.31,117.18c-3.57,1.52-50.64,6.25-84.99,11.35
			c0,0,57.59,28.8,123.17,33.21l-25.94,27.93c0,0,46.13-18.73,65.71-48.96c0,0,39.16,30.72,71.14,42.37c0,0-17.6-14-23.97-22.1
			c0,0,51.86,0.56,102.95-33.24L284.9,306.16z"/>
	</g>
</g>
<g id="Layer_6">
	<g>
		<path class="st0" d="M307.66,324.39c-38.66,4.24-77.65,8.39-87.04,4.79c48.25-51.23,79.6-76.32,79.6-76.32
			c-41.66,27.11-84.28,68.35-84.28,68.35c-2.61-51.28-4.9-147.41-4.9-147.41c-0.6,24.91-4.37,103.96-6.94,146.57
			c-4.05-0.72-34.6-18.2-94.35-75.11c0,0,45.17,62.24,92.1,84.28c-13.06,1.87-36.08-0.93-91.26-8.57c0,0,52.06,17.8,90.78,18.99
			c-1.46,23.84,18.28,14.88,17.04-3.08C254.16,339.26,307.66,324.39,307.66,324.39z"/>
	</g>
</g>
<rect x="70.93" y="457.66" class="st2" width="301.49" height="73.54"/>
<text transform="matrix(1 0 0 1 70.9277 495.0566)" class="st3 st4">BAKED</text>
</svg>
