<?xml version="1.0" encoding="utf-8"?>
<!-- Generator: Adobe Illustrator 23.1.1, SVG Export Plug-In . SVG Version: 6.00 Build 0)  -->
<svg version="1.1" xmlns="http://www.w3.org/2000/svg" xmlns:xlink="http://www.w3.org/1999/xlink" x="0px" y="0px"
	 viewBox="0 0 998.12 455.12" style="enable-background:new 0 0 998.12 455.12;" xml:space="preserve">
<style type="text/css">
	.st0{fill:#3A3A3C;}
	.st1{fill:#798B57;}
	.st2{fill:none;}
	.st3{font-family:'Apple-Chancery';}
	.st4{font-size:120px;}
</style>
<g id="Layer_3">
	<path class="st0" d="M164.62,225.48c0,0-27.96-29.76,49.8-214.66c0,0,76.47,151.52,59.34,214.66c0,0,34.34-19.99,156.7-57.89
		c0,0-31.21,89.09-122.79,136.46c0,0,41.33,2.71,88.34,8.59c0,0-78.54,50.83-116.82,44.03l44.56,32.03
		c-0.06,3.26-58.07-7.81-97.53-42.29c0,0-1.18,71.6,8.33,91.82c9.52,20.23-21.54-39.72-25.11-83.74c0,0-40.25,32.91-92.6,46
		c0,0,23.72-18.17,47.51-43.16c0,0-68.55-5.39-133.98-43.46c0,0,57.08-9.37,94.47-9.82c0,0-53.98-25.77-101.51-141.98
		C23.35,162.08,119.7,203.37,164.62,225.48z"/>
</g>
<g id="Layer_4">
	<path class="st1" d="M293.11,307.18c0,0,85.27-47.86,109.47-116.67c0,0-56.48,12.82-139.4,51.36c0,0,8.8-86.77-48.69-174.48
		c0,0-64.57,107.81-36.31,177c0,0-30.92-19.61-129.45-54.4c0,0,21.68,66.62,91.31,117.18c-3.57,1.52-50.64,6.25-84.99,11.35
		c0,0,57.59,28.8,123.17,33.21l-25.94,27.93c0,0,46.13-18.73,65.71-48.96c0,0,39.16,30.72,71.14,42.37c0,0-17.6-14-23.97-22.1
		c0,0,51.86,0.56,102.95-33.24L293.11,307.18z"/>
</g>
<g id="Layer_6">
	<path class="st0" d="M315.87,325.41c-38.66,4.24-77.65,8.39-87.04,4.79c48.25-51.23,79.6-76.32,79.6-76.32
		c-41.66,27.11-84.28,68.35-84.28,68.35c-2.61-51.28-4.9-147.41-4.9-147.41c-0.6,24.91-4.37,103.96-6.94,146.57
		c-4.05-0.72-34.6-18.2-94.35-75.11c0,0,45.17,62.24,92.1,84.28c-13.06,1.87-36.08-0.93-91.26-8.57c0,0,52.06,17.8,90.78,18.99
		c-1.46,23.84,18.28,14.88,17.04-3.08C262.37,340.28,315.87,325.41,315.87,325.41z"/>
</g>
<g id="Layer_5">
	<rect x="465.68" y="177.86" class="st2" width="499.69" height="180.68"/>
	<text transform="matrix(1.05 0 0 1 465.6783 281.6572)"><tspan x="0" y="0" class="st3 st4">B</tspan><tspan x="86.06" y="0" class="st3 st4">A</tspan><tspan x="171.42" y="0" class="st3 st4">KED</tspan></text>
</g>
</svg>
